<svg width="48" height="48" viewBox="0 0 48 48" fill="none" xmlns="http://www.w3.org/2000/svg">
<g clip-path="url(#clip0)">
<path d="M47.0696 9.64652C47.0664 9.64652 47.0633 9.64652 47.0603 9.64652H43.9062V8.56724C43.9232 8.14007 43.6468 7.75615 43.2363 7.63683C41.0466 7.063 38.7917 6.77527 36.528 6.78085C32.8064 6.78085 27.7356 7.61822 23.986 11.4329C20.2644 7.581 15.1564 6.78085 11.4441 6.78085C9.18038 6.77527 6.92553 7.063 4.7358 7.63683C4.32526 7.75615 4.04892 8.14007 4.0659 8.56724V9.63722H0.930413C0.416592 9.63722 0 10.0538 0 10.5676V40.285C0 40.7988 0.416592 41.2154 0.930413 41.2154C1.09021 41.215 1.24722 41.1733 1.38632 41.0945C1.47936 41.0479 10.7835 35.9586 23.772 39.2336H23.9116H23.9953C24.0695 39.2426 24.1444 39.2426 24.2186 39.2336C37.2444 35.9307 46.5486 41.0107 46.6044 41.0945C46.8922 41.2607 47.2469 41.2607 47.5348 41.0945C47.8209 40.9293 47.998 40.6247 48 40.2943V10.5769C48 10.0631 47.5835 9.64652 47.0696 9.64652ZM1.86083 38.8056V11.5073H4.08451V34.8421C4.0787 35.3559 4.49052 35.7772 5.00434 35.783C5.05458 35.7836 5.10483 35.7801 5.15449 35.7725C7.07928 35.4786 9.02256 35.3231 10.9696 35.3073C13.6666 35.2605 16.3524 35.6662 18.9153 36.5075C13.1275 35.8076 7.25687 36.5987 1.86083 38.8056ZM10.9696 33.4558C9.27726 33.4596 7.58694 33.5684 5.90812 33.7814V9.30227C7.71964 8.8987 9.56953 8.69273 11.4255 8.68819C14.9052 8.68819 19.7061 9.48835 23.037 13.2472L23.0649 36.4238C21.1297 35.1584 17.3522 33.4558 10.9696 33.4558ZM24.9258 13.2472C28.2566 9.52557 33.0576 8.68819 36.5373 8.68819C38.3931 8.69366 40.243 8.89951 42.0547 9.30227V33.7814C40.3853 33.5664 38.7042 33.4545 37.0211 33.4465C30.6757 33.4465 26.8889 35.1491 24.9258 36.4145V13.2472V13.2472ZM46.1299 38.8056C40.7223 36.5927 34.8381 35.8015 29.0382 36.5075C31.6132 35.6632 34.3118 35.2574 37.0211 35.3073C38.9803 35.3182 40.9362 35.4706 42.8734 35.7632C43.3814 35.8403 43.8558 35.4909 43.9329 34.9829C43.9405 34.9333 43.944 34.883 43.9434 34.8328V11.5073H46.1671L46.1299 38.8056Z" fill="white"/>
</g>
<defs>
<clipPath id="clip0">
<rect width="48" height="48" fill="white"/>
</clipPath>
</defs>
</svg>
